<mxfile host="app.diagrams.net" agent="Mozilla/5.0 (Macintosh; Intel Mac OS X 10_15_7) AppleWebKit/537.36 (KHTML, like Gecko) Chrome/133.0.0.0 Safari/537.36" version="26.1.0" pages="2">
  <diagram name="SpriingSecurity默认会话管理" id="0WrL7o3Rk9MnRb0UXv_r">
    <mxGraphModel dx="1745" dy="1080" grid="1" gridSize="10" guides="1" tooltips="1" connect="1" arrows="1" fold="1" page="1" pageScale="1" pageWidth="827" pageHeight="1169" math="0" shadow="0">
      <root>
        <mxCell id="0" />
        <mxCell id="1" parent="0" />
        <mxCell id="WsOsHRu-ZA6tnAhYbWCq-3" style="edgeStyle=orthogonalEdgeStyle;rounded=0;orthogonalLoop=1;jettySize=auto;html=1;" parent="1" target="WsOsHRu-ZA6tnAhYbWCq-2" edge="1">
          <mxGeometry relative="1" as="geometry">
            <mxPoint x="414" y="110" as="sourcePoint" />
          </mxGeometry>
        </mxCell>
        <mxCell id="WsOsHRu-ZA6tnAhYbWCq-1" value="Actor" style="shape=umlActor;verticalLabelPosition=bottom;verticalAlign=top;html=1;outlineConnect=0;" parent="1" vertex="1">
          <mxGeometry x="399" y="20" width="30" height="60" as="geometry" />
        </mxCell>
        <mxCell id="WsOsHRu-ZA6tnAhYbWCq-5" style="edgeStyle=orthogonalEdgeStyle;rounded=0;orthogonalLoop=1;jettySize=auto;html=1;" parent="1" source="WsOsHRu-ZA6tnAhYbWCq-2" target="WsOsHRu-ZA6tnAhYbWCq-4" edge="1">
          <mxGeometry relative="1" as="geometry" />
        </mxCell>
        <mxCell id="WsOsHRu-ZA6tnAhYbWCq-2" value="访问受保护的资源" style="rounded=0;whiteSpace=wrap;html=1;" parent="1" vertex="1">
          <mxGeometry x="354" y="170" width="120" height="60" as="geometry" />
        </mxCell>
        <mxCell id="WsOsHRu-ZA6tnAhYbWCq-8" style="edgeStyle=orthogonalEdgeStyle;rounded=0;orthogonalLoop=1;jettySize=auto;html=1;" parent="1" source="WsOsHRu-ZA6tnAhYbWCq-4" target="WsOsHRu-ZA6tnAhYbWCq-7" edge="1">
          <mxGeometry relative="1" as="geometry" />
        </mxCell>
        <mxCell id="WsOsHRu-ZA6tnAhYbWCq-16" value="已登录" style="edgeLabel;html=1;align=center;verticalAlign=middle;resizable=0;points=[];" parent="WsOsHRu-ZA6tnAhYbWCq-8" vertex="1" connectable="0">
          <mxGeometry x="-0.24" relative="1" as="geometry">
            <mxPoint as="offset" />
          </mxGeometry>
        </mxCell>
        <mxCell id="WsOsHRu-ZA6tnAhYbWCq-9" style="edgeStyle=orthogonalEdgeStyle;rounded=0;orthogonalLoop=1;jettySize=auto;html=1;" parent="1" source="WsOsHRu-ZA6tnAhYbWCq-4" edge="1">
          <mxGeometry relative="1" as="geometry">
            <mxPoint x="280" y="310" as="targetPoint" />
          </mxGeometry>
        </mxCell>
        <mxCell id="WsOsHRu-ZA6tnAhYbWCq-17" value="未登录" style="edgeLabel;html=1;align=center;verticalAlign=middle;resizable=0;points=[];" parent="WsOsHRu-ZA6tnAhYbWCq-9" vertex="1" connectable="0">
          <mxGeometry x="0.1761" y="-3" relative="1" as="geometry">
            <mxPoint x="11" y="3" as="offset" />
          </mxGeometry>
        </mxCell>
        <mxCell id="WsOsHRu-ZA6tnAhYbWCq-4" value="检测登录状态" style="rhombus;whiteSpace=wrap;html=1;" parent="1" vertex="1">
          <mxGeometry x="351" y="270" width="126" height="80" as="geometry" />
        </mxCell>
        <mxCell id="WsOsHRu-ZA6tnAhYbWCq-15" style="edgeStyle=orthogonalEdgeStyle;rounded=0;orthogonalLoop=1;jettySize=auto;html=1;entryX=0.5;entryY=0;entryDx=0;entryDy=0;" parent="1" source="WsOsHRu-ZA6tnAhYbWCq-7" target="WsOsHRu-ZA6tnAhYbWCq-14" edge="1">
          <mxGeometry relative="1" as="geometry" />
        </mxCell>
        <mxCell id="WsOsHRu-ZA6tnAhYbWCq-7" value="返回资源" style="rounded=0;whiteSpace=wrap;html=1;" parent="1" vertex="1">
          <mxGeometry x="354" y="525" width="120" height="60" as="geometry" />
        </mxCell>
        <mxCell id="WsOsHRu-ZA6tnAhYbWCq-12" style="edgeStyle=orthogonalEdgeStyle;rounded=0;orthogonalLoop=1;jettySize=auto;html=1;" parent="1" source="WsOsHRu-ZA6tnAhYbWCq-10" target="WsOsHRu-ZA6tnAhYbWCq-11" edge="1">
          <mxGeometry relative="1" as="geometry" />
        </mxCell>
        <mxCell id="WsOsHRu-ZA6tnAhYbWCq-10" value="重定向到登录页面" style="rounded=0;whiteSpace=wrap;html=1;" parent="1" vertex="1">
          <mxGeometry x="160" y="280" width="120" height="60" as="geometry" />
        </mxCell>
        <mxCell id="WsOsHRu-ZA6tnAhYbWCq-19" style="edgeStyle=orthogonalEdgeStyle;rounded=0;orthogonalLoop=1;jettySize=auto;html=1;entryX=0.5;entryY=0;entryDx=0;entryDy=0;" parent="1" source="WsOsHRu-ZA6tnAhYbWCq-11" target="WsOsHRu-ZA6tnAhYbWCq-20" edge="1">
          <mxGeometry relative="1" as="geometry">
            <mxPoint x="220" y="560" as="targetPoint" />
          </mxGeometry>
        </mxCell>
        <mxCell id="WsOsHRu-ZA6tnAhYbWCq-11" value="登录" style="rounded=0;whiteSpace=wrap;html=1;" parent="1" vertex="1">
          <mxGeometry x="160" y="400" width="120" height="60" as="geometry" />
        </mxCell>
        <mxCell id="WsOsHRu-ZA6tnAhYbWCq-14" value="结束" style="ellipse;whiteSpace=wrap;html=1;" parent="1" vertex="1">
          <mxGeometry x="381" y="690" width="66" height="55" as="geometry" />
        </mxCell>
        <mxCell id="WsOsHRu-ZA6tnAhYbWCq-21" style="edgeStyle=orthogonalEdgeStyle;rounded=0;orthogonalLoop=1;jettySize=auto;html=1;" parent="1" source="WsOsHRu-ZA6tnAhYbWCq-20" target="WsOsHRu-ZA6tnAhYbWCq-7" edge="1">
          <mxGeometry relative="1" as="geometry" />
        </mxCell>
        <mxCell id="WsOsHRu-ZA6tnAhYbWCq-20" value="set JSessionId Cookie" style="rounded=0;whiteSpace=wrap;html=1;" parent="1" vertex="1">
          <mxGeometry x="160" y="524.5" width="120" height="60" as="geometry" />
        </mxCell>
      </root>
    </mxGraphModel>
  </diagram>
  <diagram id="q7GUmmiMOiAiKQjX9eQD" name="系统架构图">
    <mxGraphModel dx="1890" dy="1124" grid="1" gridSize="10" guides="1" tooltips="1" connect="1" arrows="1" fold="1" page="1" pageScale="1" pageWidth="827" pageHeight="1169" math="0" shadow="0">
      <root>
        <mxCell id="0" />
        <mxCell id="1" parent="0" />
        <mxCell id="ltntCuYOA1MJF_F6SQ69-5" style="edgeStyle=orthogonalEdgeStyle;rounded=0;orthogonalLoop=1;jettySize=auto;html=1;startArrow=classic;startFill=1;" edge="1" parent="1" source="ltntCuYOA1MJF_F6SQ69-1" target="ltntCuYOA1MJF_F6SQ69-2">
          <mxGeometry relative="1" as="geometry" />
        </mxCell>
        <mxCell id="ltntCuYOA1MJF_F6SQ69-1" value="Vue" style="rounded=0;whiteSpace=wrap;html=1;fillColor=#d5e8d4;strokeColor=#82b366;" vertex="1" parent="1">
          <mxGeometry x="160" y="180" width="120" height="60" as="geometry" />
        </mxCell>
        <mxCell id="ltntCuYOA1MJF_F6SQ69-6" style="edgeStyle=orthogonalEdgeStyle;rounded=0;orthogonalLoop=1;jettySize=auto;html=1;startArrow=classic;startFill=1;" edge="1" parent="1" source="ltntCuYOA1MJF_F6SQ69-2" target="ltntCuYOA1MJF_F6SQ69-3">
          <mxGeometry relative="1" as="geometry" />
        </mxCell>
        <mxCell id="ltntCuYOA1MJF_F6SQ69-7" style="edgeStyle=orthogonalEdgeStyle;rounded=0;orthogonalLoop=1;jettySize=auto;html=1;startArrow=classic;startFill=1;" edge="1" parent="1" source="ltntCuYOA1MJF_F6SQ69-2" target="ltntCuYOA1MJF_F6SQ69-4">
          <mxGeometry relative="1" as="geometry" />
        </mxCell>
        <mxCell id="ltntCuYOA1MJF_F6SQ69-8" value="关联本地用户" style="edgeLabel;html=1;align=center;verticalAlign=middle;resizable=0;points=[];" vertex="1" connectable="0" parent="ltntCuYOA1MJF_F6SQ69-7">
          <mxGeometry x="0.0333" relative="1" as="geometry">
            <mxPoint y="-3" as="offset" />
          </mxGeometry>
        </mxCell>
        <mxCell id="ltntCuYOA1MJF_F6SQ69-2" value="SpringBoot&lt;div&gt;（资源服务器）&lt;/div&gt;" style="rounded=0;whiteSpace=wrap;html=1;fillColor=#d5e8d4;strokeColor=#82b366;" vertex="1" parent="1">
          <mxGeometry x="354" y="180" width="120" height="60" as="geometry" />
        </mxCell>
        <mxCell id="ltntCuYOA1MJF_F6SQ69-3" value="第三方授权服务器&lt;br&gt;&lt;div&gt;（Google/Azure）&lt;/div&gt;" style="rounded=0;whiteSpace=wrap;html=1;fillColor=#d5e8d4;strokeColor=#82b366;" vertex="1" parent="1">
          <mxGeometry x="550" y="180" width="120" height="60" as="geometry" />
        </mxCell>
        <mxCell id="ltntCuYOA1MJF_F6SQ69-4" value="BDS 数据库" style="rounded=0;whiteSpace=wrap;html=1;fillColor=#d5e8d4;strokeColor=#82b366;" vertex="1" parent="1">
          <mxGeometry x="354" y="300" width="120" height="60" as="geometry" />
        </mxCell>
      </root>
    </mxGraphModel>
  </diagram>
</mxfile>
